<?xml version="1.0" encoding="UTF-8"?>
<svg xmlns="http://www.w3.org/2000/svg" baseProfile="tiny" version="1.2" viewBox="0 0 74.1 77.2">
  <g>
    <path
      d="M33.8,74.3c0,.3-.2.5-.6.5H7.4c-.4,0-.6-.2-.6-.5v-41.5c0-.3.2-.5.5-.5h25c.3,0,.5.2.6.5l.7,6c0,.4,0,.6-.5.6H14.6v10.3h16.9c.3,0,.5.2.5.5v6.2c0,.3-.2.4-.5.4H14.6v11.1h19.6c.4,0,.5.2.5.5l-1,6Z"
      fill="#66b2ff" />
    <path
      d="M38,43.5c0-.1-.1-.3,0-.4,0-.1.2-.2.4-.2h7.8c.3,0,.6.2.8.5l6.2,11.2h.1l6.5-11.3c0-.2.2-.3.2-.3,0,0,.2,0,.4,0h6.9c.4,0,.5.2.3.5-.6.9-1.3,2-2.1,3.4-.9,1.4-1.8,2.8-2.7,4.2-.9,1.4-1.8,2.8-2.7,4.2-.9,1.3-1.7,2.5-2.3,3.4.7,1.1,1.5,2.4,2.5,3.8,1,1.5,1.9,2.9,2.9,4.4s1.9,2.9,2.8,4.2c.9,1.3,1.6,2.4,2.2,3.2.3.3.2.5-.3.5h-8c-.3,0-.6-.2-.8-.5l-6.5-11.3h0l-6.7,11.4c-.1.3-.4.4-.7.4h-6.9c-.2,0-.3,0-.4-.2,0-.1,0-.3,0-.4.7-1,1.5-2.2,2.3-3.6.9-1.3,1.8-2.7,2.7-4.1s1.8-2.7,2.7-4.1c.9-1.3,1.6-2.5,2.3-3.6l-9.7-15.5Z"
      fill="#66b2ff" />
  </g>
  <path
    d="M51.2,40.4c-1.1-.4-1.9-1.1-2.3-2-.4-.9-.4-2,0-3.1.4-1.1,1.1-1.9,2.1-2.3,1-.4,2-.4,3,0,1.1.4,1.9,1.1,2.3,2.1.4.9.4,2,0,3-.4,1.1-1.1,1.9-2,2.3-.9.4-1.9.4-3.1,0ZM64.6,4.4c1.6.6,2.9,1.4,4,2.3,1.1.9,1.9,1.9,2.4,3,.6,1.1.8,2.2.9,3.4,0,1.2-.2,2.3-.6,3.5-.7,1.7-1.5,3-2.6,3.8-1,.9-2.3,1.6-3.7,2.1-1.4.6-2.7,1.2-3.9,1.7-1.2.5-1.9,1.2-2.2,2-.4,1-.5,2-.3,3.2,0,0,0,.2,0,.3,0,0-.2,0-.3,0l-4.6-1.8c-.1,0-.3-.1-.3-.2,0,0-.2-.2-.3-.3-.3-.8-.4-1.5-.3-2.2,0-.7.2-1.4.4-1.9.5-1.2,1.3-2.2,2.4-2.9,1.1-.7,2.5-1.4,4.3-2.2,1.2-.5,2.2-1,2.9-1.5.7-.5,1.3-1.1,1.6-1.9.4-1,.3-1.9-.1-2.7-.5-.9-1.5-1.6-3.1-2.2-1.4-.5-2.7-.9-3.9-.9-1.2,0-2.3,0-3.4.1-.3,0-.5,0-.3-.4l2-5.1c.1-.3.2-.4.4-.4.8-.1,1.9-.1,3.4,0,1.5,0,3.3.5,5.3,1.3Z"
    fill="#66b2ff" />
</svg>