<?xml version="1.0" encoding="utf-8"?>

<svg version="1.2" baseProfile="tiny" xmlns="http://www.w3.org/2000/svg" xmlns:xlink="http://www.w3.org/1999/xlink"
	x="0px" y="0px" viewBox="0 0 74.1 77.2" overflow="visible" xml:space="preserve" fill="#66b2ff">
	<g>
		<path d="M29,62.6c0,0.3-0.2,0.5-0.5,0.5H5.7c-0.3,0-0.5-0.2-0.5-0.5V25.8c0-0.3,0.2-0.5,0.5-0.5h22.2c0.3,0,0.5,0.1,0.5,0.4
		l0.6,5.3c0.1,0.3-0.1,0.5-0.4,0.5H12.1v9.1H27c0.3,0,0.4,0.1,0.4,0.4v5.5c0,0.2-0.1,0.3-0.4,0.3H12.1v9.9h17.4
		c0.3,0,0.5,0.2,0.4,0.5L29,62.6z" />
		<path d="M32.8,35.3c-0.1-0.1-0.1-0.2-0.1-0.3c0-0.1,0.2-0.2,0.3-0.2H40c0.3,0,0.5,0.1,0.7,0.4l5.5,9.9h0.1l5.7-10
		c0.1-0.2,0.1-0.2,0.2-0.3c0.1,0,0.2,0,0.3,0h6.1c0.4,0,0.5,0.2,0.3,0.5c-0.5,0.8-1.1,1.8-1.9,3c-0.8,1.2-1.5,2.4-2.4,3.7
		c-0.8,1.3-1.6,2.5-2.4,3.7c-0.8,1.2-1.5,2.2-2,3c0.6,1,1.3,2.1,2.2,3.4c0.9,1.3,1.7,2.6,2.6,3.9c0.9,1.3,1.7,2.6,2.5,3.8
		c0.8,1.2,1.5,2.1,2,2.9c0.3,0.3,0.2,0.5-0.3,0.5h-7.1c-0.3,0-0.6-0.2-0.7-0.5l-5.7-10h-0.1l-5.9,10.1c-0.1,0.2-0.3,0.3-0.6,0.3
		h-6.1c-0.2,0-0.3-0.1-0.3-0.2c-0.1-0.1,0-0.2,0-0.3c0.6-0.9,1.3-2,2.1-3.2c0.8-1.2,1.5-2.4,2.4-3.6c0.8-1.2,1.6-2.4,2.4-3.6
		c0.8-1.2,1.5-2.2,2.1-3.2L32.8,35.3z" />
	</g>
	<g>
		<path d="M41.3,12.4c1.1-1.4,2.2-2.4,3.3-3.2s2.4-1.3,3.6-1.5c1.2-0.2,2.4-0.2,3.5,0.1c1.1,0.3,2.2,0.8,3.2,1.6
		c1.5,1.1,2.5,2.3,3,3.6c0.5,1.3,0.9,2.7,1,4.2c0.2,1.5,0.4,2.9,0.5,4.2c0.2,1.3,0.6,2.2,1.3,2.7c0.8,0.6,1.8,1,3.1,1.2
		c0.1,0,0.2,0,0.2,0.1c0.1,0.1,0,0.2-0.1,0.3l-3.1,4c-0.1,0.1-0.2,0.2-0.2,0.3c-0.1,0.1-0.2,0.1-0.4,0.2c-0.8,0.1-1.6-0.1-2.3-0.4
		c-0.7-0.3-1.3-0.6-1.7-1c-1.1-0.8-1.8-1.9-2.1-3.1c-0.3-1.3-0.6-2.8-0.9-4.8c-0.2-1.3-0.4-2.4-0.6-3.3c-0.2-0.8-0.7-1.5-1.4-2.1
		c-0.8-0.6-1.7-0.8-2.7-0.7c-1,0.2-2,1-3.1,2.4c-0.9,1.2-1.6,2.4-2,3.5s-0.7,2.3-0.9,3.4c-0.1,0.3-0.2,0.4-0.5,0.2L37.8,21
		c-0.2-0.2-0.3-0.4-0.3-0.5c0.1-0.8,0.4-1.9,0.9-3.3C39,15.7,39.9,14.1,41.3,12.4z M72.4,35.7c-0.7,0.9-1.6,1.5-2.6,1.7
		c-1,0.2-2-0.1-3-0.9c-1-0.7-1.5-1.6-1.6-2.7c-0.1-1,0.2-2,0.9-2.9c0.7-1,1.6-1.5,2.7-1.6c1-0.1,2,0.2,2.9,0.9
		c1,0.7,1.5,1.6,1.7,2.6C73.5,33.7,73.2,34.7,72.4,35.7z" />
	</g>
</svg>