<?xml version="1.0" encoding="UTF-8"?>
<svg xmlns="http://www.w3.org/2000/svg" baseProfile="tiny" version="1.2" viewBox="0 0 74.1 77.2">
	<g>
		<path
			d="M13.5,63.6l-3.6,10.7c-.1.3-.4.5-.7.5H2.7c-.3,0-.5-.2-.5-.6l13.4-38c.1-.3.2-.7.3-1.2,0-.4.2-1.2.3-2.3,0-.3.1-.5.4-.5h9c.3,0,.4.1.5.4l15,41.6c0,.4,0,.6-.4.6h-7.3c-.3,0-.5-.1-.6-.4l-3.8-10.8h-15.5ZM26.9,56.6c-.3-1.1-.8-2.4-1.3-4s-1-3.2-1.6-4.9c-.5-1.7-1.1-3.3-1.6-4.9s-.9-3-1.2-4.1h0c-.3,1.1-.6,2.3-1,3.8-.4,1.4-.9,3-1.4,4.5-.5,1.6-1,3.2-1.6,4.8-.5,1.6-1,3.2-1.5,4.7h11.3Z"
			fill="#66b2ff" />
		<path
			d="M51.3,60.6c0,1.1.3,2.2.7,3.2.4,1,1,1.9,1.8,2.6.8.7,1.8,1.3,3,1.8,1.2.4,2.6.6,4.3.6,2.9,0,5.6-.5,8-1.6.3-.2.4,0,.4.3v5.4c0,.3-.1.6-.4.7-1.3.6-2.6,1.1-4.1,1.4-1.5.3-3.4.5-5.6.5s-5.4-.5-7.5-1.4c-2.1-1-3.7-2.2-5-3.7-1.3-1.5-2.2-3.3-2.7-5.2-.6-1.9-.8-3.9-.8-5.9s.3-4.4,1-6.4c.7-2.1,1.7-3.9,2.9-5.4,1.3-1.6,2.9-2.8,4.8-3.7,1.9-.9,4.1-1.4,6.5-1.4s4.4.4,6.1,1.3c1.7.8,3.1,1.9,4.1,3.3,1.1,1.3,1.9,2.8,2.3,4.4.5,1.6.7,3.2.7,4.7s0,1.7,0,2.4c0,.7-.1,1.2-.2,1.6,0,.3-.2.4-.5.5-.5,0-1.3.2-2.5.2-1.2,0-2.6,0-4.2,0h-13.2ZM60.9,55.1h2.6c.5,0,.8,0,.9,0v-.5c0-.5,0-1.1-.3-1.8-.2-.7-.5-1.4-1-2-.5-.6-1.1-1.2-1.9-1.6-.8-.5-1.8-.7-3-.7s-2.1.2-2.9.6c-.8.4-1.5.9-2.1,1.5-.6.6-1,1.3-1.3,2.1s-.6,1.6-.7,2.4h9.7Z"
			fill="#66b2ff" />
	</g>
	<path
		d="M40,44.3c-1.2-.5-2.1-1.2-2.6-2.3-.5-1-.5-2.2,0-3.5.5-1.3,1.3-2.1,2.4-2.6,1.1-.4,2.2-.4,3.4,0,1.3.5,2.1,1.3,2.6,2.3.5,1.1.4,2.2,0,3.4-.5,1.3-1.2,2.2-2.3,2.6s-2.2.5-3.5,0ZM55.2,3.7c1.8.7,3.3,1.6,4.5,2.6,1.2,1,2.1,2.1,2.7,3.4.6,1.2,1,2.5,1,3.8,0,1.3-.2,2.6-.7,4-.7,1.9-1.7,3.4-2.9,4.3-1.2,1-2.6,1.8-4.1,2.4-1.6.7-3,1.3-4.4,1.9-1.3.6-2.2,1.4-2.5,2.3-.4,1.1-.5,2.3-.3,3.7,0,.1,0,.2,0,.3,0,0-.2,0-.4,0l-5.2-2c-.2,0-.3-.1-.4-.2,0,0-.2-.2-.3-.4-.3-.9-.4-1.7-.3-2.5s.3-1.5.5-2.1c.5-1.4,1.4-2.5,2.7-3.2,1.2-.8,2.8-1.6,4.8-2.4,1.4-.6,2.5-1.2,3.3-1.7.8-.5,1.4-1.2,1.8-2.2.4-1.1.4-2.1-.1-3.1-.5-1-1.7-1.8-3.5-2.5-1.6-.6-3.1-1-4.4-1.1-1.4,0-2.6,0-3.9.1-.4,0-.5-.1-.4-.4l2.3-5.8c.1-.3.3-.5.5-.5.9-.1,2.2-.1,3.9,0,1.7,0,3.7.6,6,1.5Z"
		fill="#66b2ff" />
</svg>