<?xml version="1.0" encoding="utf-8"?>

<svg version="1.2" baseProfile="tiny" xmlns="http://www.w3.org/2000/svg" fill="#66b2ff"
	xmlns:xlink="http://www.w3.org/1999/xlink" x="0px" y="0px" viewBox="0 0 74.1 77.2" overflow="visible"
	xml:space="preserve">
	<g>
		<path d="M11.1,53.1l-3.2,9.5c-0.1,0.3-0.3,0.5-0.6,0.5H1.5c-0.3,0-0.4-0.2-0.4-0.6L13,28.9c0.1-0.3,0.2-0.7,0.3-1
		c0.1-0.4,0.2-1.1,0.2-2.1c0-0.3,0.1-0.4,0.3-0.4h8c0.2,0,0.4,0.1,0.4,0.3l13.3,36.9c0,0.3-0.1,0.5-0.3,0.5h-6.4
		c-0.3,0-0.5-0.1-0.6-0.3l-3.3-9.6H11.1z M23,46.9c-0.3-1-0.7-2.1-1.1-3.5c-0.5-1.4-0.9-2.8-1.4-4.3c-0.5-1.5-0.9-2.9-1.4-4.4
		c-0.5-1.4-0.8-2.6-1.1-3.6h-0.1c-0.2,1-0.5,2.1-0.9,3.4c-0.4,1.3-0.8,2.6-1.3,4c-0.5,1.4-0.9,2.8-1.4,4.3c-0.5,1.5-0.9,2.8-1.3,4.1
		H23z" />
		<path d="M44.5,50.5c0,1,0.2,1.9,0.6,2.8c0.4,0.9,0.9,1.6,1.6,2.3c0.7,0.7,1.6,1.2,2.7,1.5c1.1,0.4,2.3,0.6,3.8,0.6
		c2.6,0,4.9-0.5,7.1-1.4c0.2-0.2,0.3-0.1,0.3,0.2v4.8c0,0.3-0.1,0.5-0.3,0.6c-1.1,0.5-2.3,0.9-3.7,1.2c-1.3,0.3-3,0.4-4.9,0.4
		c-2.6,0-4.8-0.4-6.6-1.3c-1.8-0.8-3.3-1.9-4.4-3.3c-1.1-1.4-1.9-2.9-2.4-4.6c-0.5-1.7-0.7-3.5-0.7-5.2c0-2,0.3-3.9,0.9-5.7
		c0.6-1.8,1.5-3.4,2.6-4.8c1.1-1.4,2.6-2.5,4.2-3.3c1.7-0.8,3.6-1.2,5.8-1.2c2.1,0,3.9,0.4,5.4,1.1s2.7,1.7,3.7,2.9
		c1,1.2,1.6,2.5,2.1,3.9c0.4,1.4,0.6,2.8,0.6,4.2c0,0.8,0,1.5-0.1,2.2s-0.1,1.1-0.2,1.4c0,0.2-0.2,0.4-0.5,0.4
		c-0.4,0.1-1.2,0.1-2.2,0.2c-1.1,0-2.3,0.1-3.7,0.1H44.5z M53.1,45.6c1.1,0,1.9,0,2.3,0c0.4,0,0.7,0,0.8-0.1V45
		c0-0.4-0.1-0.9-0.3-1.5c-0.2-0.6-0.5-1.2-0.9-1.8c-0.4-0.6-1-1-1.7-1.4c-0.7-0.4-1.6-0.6-2.7-0.6c-1,0-1.9,0.2-2.6,0.5
		c-0.7,0.3-1.3,0.8-1.8,1.3c-0.5,0.6-0.9,1.2-1.2,1.9s-0.5,1.4-0.6,2.1H53.1z" />
	</g>
	<g>
		<path d="M41.3,12.4c1.1-1.4,2.2-2.4,3.3-3.2s2.4-1.3,3.6-1.5c1.2-0.2,2.4-0.2,3.5,0.1c1.1,0.3,2.2,0.8,3.2,1.6
		c1.5,1.1,2.5,2.3,3,3.6c0.5,1.3,0.9,2.7,1,4.2c0.2,1.5,0.4,2.9,0.5,4.2c0.2,1.3,0.6,2.2,1.3,2.7c0.8,0.6,1.8,1,3.1,1.2
		c0.1,0,0.2,0,0.2,0.1c0.1,0.1,0,0.2-0.1,0.3l-3.1,4c-0.1,0.1-0.2,0.2-0.2,0.3c-0.1,0.1-0.2,0.1-0.4,0.2c-0.8,0.1-1.6-0.1-2.3-0.4
		c-0.7-0.3-1.3-0.6-1.7-1c-1.1-0.8-1.8-1.9-2.1-3.1c-0.3-1.3-0.6-2.8-0.9-4.8c-0.2-1.3-0.4-2.4-0.6-3.3c-0.2-0.8-0.7-1.5-1.4-2.1
		c-0.8-0.6-1.7-0.8-2.7-0.7c-1,0.2-2,1-3.1,2.4c-0.9,1.2-1.6,2.4-2,3.5s-0.7,2.3-0.9,3.4c-0.1,0.3-0.2,0.4-0.5,0.2L37.8,21
		c-0.2-0.2-0.3-0.4-0.3-0.5c0.1-0.8,0.4-1.9,0.9-3.3C39,15.7,39.9,14.1,41.3,12.4z M72.4,35.7c-0.7,0.9-1.6,1.5-2.6,1.7
		c-1,0.2-2-0.1-3-0.9c-1-0.7-1.5-1.6-1.6-2.7c-0.1-1,0.2-2,0.9-2.9c0.7-1,1.6-1.5,2.7-1.6c1-0.1,2,0.2,2.9,0.9
		c1,0.7,1.5,1.6,1.7,2.6C73.5,33.7,73.2,34.7,72.4,35.7z" />
	</g>
</svg>