<?xml version="1.0" encoding="utf-8"?>

<svg version="1.2" baseProfile="tiny" 
	 xmlns="http://www.w3.org/2000/svg" xmlns:xlink="http://www.w3.org/1999/xlink" x="0px" y="0px" viewBox="0 0 74.1 77.2" fill="#66b2ff"
	 overflow="visible" xml:space="preserve">
<g>
	<path d="M5.2,25.9c0-0.3,0.1-0.5,0.4-0.5c1.1,0,2.6-0.1,4.6-0.1c1.9,0,4-0.1,6.1-0.1c2.8,0,5.2,0.4,7.1,1.1
		c1.9,0.7,3.5,1.6,4.7,2.8c1.2,1.2,2.1,2.5,2.6,4c0.6,1.5,0.8,3.1,0.8,4.6c0,2.3-0.4,4.3-1.2,5.9c-0.8,1.6-2,3-3.4,4
		c-1.4,1.1-3.1,1.8-5,2.4s-3.9,0.8-6.1,0.8h-3.6v11.8c0,0.3-0.2,0.5-0.5,0.5h-6c-0.3,0-0.5-0.1-0.5-0.4V25.9z M12.1,44.7
		c0.5,0,1,0.1,1.5,0.1c0.5,0,1.2,0,2.2,0c1.2,0,2.3-0.1,3.4-0.3c1.1-0.2,2-0.6,2.8-1.1s1.4-1.2,1.9-2.1c0.5-0.9,0.7-2,0.7-3.3
		c0-2.1-0.7-3.7-2.2-4.9c-1.4-1.2-3.5-1.8-6.1-1.8c-1,0-1.9,0-2.6,0c-0.8,0-1.3,0-1.6,0.1V44.7z"/>
	<path d="M41.9,34.8c0.3,0,0.5,0.2,0.6,0.5c0.2,0.4,0.3,0.9,0.4,1.5s0.2,1.3,0.2,1.9c1-1.2,2.3-2.3,3.8-3.2c1.6-0.9,3.3-1.3,5.3-1.3
		c0.3,0,0.5,0.1,0.5,0.4v6.1c0,0.3-0.2,0.4-0.5,0.4c-2.1-0.1-3.9,0.2-5.5,0.8c-1.6,0.6-2.7,1.4-3.3,2.2v18.5c0,0.3-0.2,0.5-0.5,0.5
		h-6c-0.3,0-0.5-0.2-0.5-0.5V42.8c0-0.6,0-1.3,0-2s0-1.4-0.1-2.1c0-0.7-0.1-1.3-0.1-2c0-0.6-0.1-1.2-0.1-1.6c0-0.2,0.1-0.3,0.3-0.3
		H41.9z"/>
</g>
<g>
	<path d="M41.3,12.4c1.1-1.4,2.2-2.4,3.3-3.2s2.4-1.3,3.6-1.5c1.2-0.2,2.4-0.2,3.5,0.1c1.1,0.3,2.2,0.8,3.2,1.6
		c1.5,1.1,2.5,2.3,3,3.6c0.5,1.3,0.9,2.7,1,4.2c0.2,1.5,0.4,2.9,0.5,4.2c0.2,1.3,0.6,2.2,1.3,2.7c0.8,0.6,1.8,1,3.1,1.2
		c0.1,0,0.2,0,0.2,0.1c0.1,0.1,0,0.2-0.1,0.3l-3.1,4c-0.1,0.1-0.2,0.2-0.2,0.3c-0.1,0.1-0.2,0.1-0.4,0.2c-0.8,0.1-1.6-0.1-2.3-0.4
		c-0.7-0.3-1.3-0.6-1.7-1c-1.1-0.8-1.8-1.9-2.1-3.1c-0.3-1.3-0.6-2.8-0.9-4.8c-0.2-1.3-0.4-2.4-0.6-3.3c-0.2-0.8-0.7-1.5-1.4-2.1
		c-0.8-0.6-1.7-0.8-2.7-0.7c-1,0.2-2,1-3.1,2.4c-0.9,1.2-1.6,2.4-2,3.5s-0.7,2.3-0.9,3.4c-0.1,0.3-0.2,0.4-0.5,0.2L37.8,21
		c-0.2-0.2-0.3-0.4-0.3-0.5c0.1-0.8,0.4-1.9,0.9-3.3C39,15.7,39.9,14.1,41.3,12.4z M72.4,35.7c-0.7,0.9-1.6,1.5-2.6,1.7
		c-1,0.2-2-0.1-3-0.9c-1-0.7-1.5-1.6-1.6-2.7c-0.1-1,0.2-2,0.9-2.9c0.7-1,1.6-1.5,2.7-1.6c1-0.1,2,0.2,2.9,0.9
		c1,0.7,1.5,1.6,1.7,2.6C73.5,33.7,73.2,34.7,72.4,35.7z"/>
</g>
</svg>
