<?xml version="1.0" encoding="UTF-8"?>
<svg xmlns="http://www.w3.org/2000/svg" baseProfile="tiny" version="1.2" viewBox="0 0 74.1 77.2">
  <g>
    <path
      d="M6.8,32.8c0-.3.2-.5.5-.5,1.3,0,3,0,5.2-.1,2.2,0,4.5,0,6.8,0s5.8.4,8,1.2c2.2.8,4,1.9,5.3,3.2,1.4,1.3,2.4,2.8,3,4.5.6,1.7.9,3.4.9,5.2,0,2.6-.5,4.8-1.4,6.7-.9,1.9-2.2,3.4-3.8,4.6-1.6,1.2-3.5,2.1-5.6,2.7-2.1.6-4.4.9-6.9.9h-4.1v13.3c0,.3-.2.5-.5.5h-6.8c-.3,0-.5-.2-.5-.5v-41.5ZM14.6,54.1c.6,0,1.1,0,1.7,0h2.4c1.3,0,2.6-.1,3.9-.4,1.2-.3,2.3-.7,3.2-1.3.9-.6,1.6-1.4,2.2-2.4.5-1,.8-2.2.8-3.7,0-2.4-.8-4.2-2.4-5.5-1.6-1.3-3.9-2-6.9-2s-2.1,0-3,0c-.9,0-1.5,0-1.8,0v15Z"
      fill="#66b2ff" />
    <path
      d="M61,50.4c-1-.6-2.2-1-3.7-1.4-1.5-.3-2.9-.5-4.4-.5s-2.9.3-3.6.9c-.7.6-1,1.2-1,1.9s.3,1.4,1,1.9c.7.6,2,1.3,4.1,2.1,3.7,1.4,6.2,2.9,7.7,4.4,1.5,1.6,2.2,3.5,2.2,5.8s-1.1,5.5-3.4,7.3c-2.2,1.8-5.4,2.7-9.4,2.7s-3.7-.2-5.3-.5c-1.6-.3-2.9-.8-3.9-1.3-.3-.2-.5-.4-.5-.7v-6.2c0-.4.2-.5.5-.3,1.4.9,2.9,1.6,4.6,2,1.7.4,3.2.6,4.7.6s2.9-.3,3.8-.8c.8-.5,1.2-1.2,1.2-2.1s-.4-1.5-1.1-2.1c-.7-.6-2.1-1.3-4.1-2.1-3.5-1.3-6-2.7-7.5-4.3-1.4-1.6-2.1-3.5-2.1-5.9s.2-2.4.7-3.6c.5-1.2,1.3-2.2,2.3-3,1-.9,2.3-1.6,3.8-2.1,1.5-.5,3.3-.8,5.3-.8s3.5.1,4.9.4c1.4.2,2.5.6,3.2.9.3.2.4.4.4.8v5.7c0,.4-.2.5-.6.4Z"
      fill="#66b2ff" />
  </g>
  <path
    d="M41.2,39.1c-1.1-.4-1.9-1.1-2.3-2-.4-.9-.4-2,0-3.1.4-1.1,1.1-1.9,2.1-2.3,1-.4,2-.4,3,0,1.1.4,1.9,1.1,2.3,2.1.4.9.4,2,0,3-.4,1.1-1.1,1.9-2,2.3s-1.9.4-3.1,0ZM54.7,3.1c1.6.6,2.9,1.4,4,2.3,1.1.9,1.9,1.9,2.4,3,.6,1.1.8,2.2.9,3.4,0,1.2-.2,2.3-.6,3.5-.7,1.7-1.5,3-2.6,3.8-1,.9-2.3,1.6-3.7,2.1-1.4.6-2.7,1.2-3.9,1.7-1.2.5-1.9,1.2-2.2,2-.4,1-.5,2-.3,3.2,0,0,0,.2,0,.3,0,0-.2,0-.3,0l-4.6-1.8c-.1,0-.3-.1-.3-.2,0,0-.2-.2-.3-.3-.3-.8-.4-1.5-.3-2.2,0-.7.2-1.4.4-1.9.5-1.2,1.3-2.2,2.4-2.9,1.1-.7,2.5-1.4,4.3-2.2,1.2-.5,2.2-1,2.9-1.5.7-.5,1.3-1.1,1.6-1.9.4-1,.3-1.9-.1-2.7-.5-.9-1.5-1.6-3.1-2.2-1.4-.5-2.7-.9-3.9-.9-1.2,0-2.3,0-3.4.1-.3,0-.5,0-.3-.4l2-5.1c.1-.3.2-.4.4-.4.8-.1,1.9-.1,3.4,0,1.5,0,3.3.5,5.3,1.3Z"
    fill="#66b2ff" />
</svg>