<?xml version="1.0" encoding="utf-8"?>

<svg version="1.2" baseProfile="tiny" fill="#66b2ff"
	 xmlns="http://www.w3.org/2000/svg" xmlns:xlink="http://www.w3.org/1999/xlink" x="0px" y="0px" viewBox="0 0 74.1 77.2"
	 overflow="visible" xml:space="preserve">
<g>
	<path d="M5.2,25.9c0-0.3,0.1-0.5,0.4-0.5c1.1,0,2.6-0.1,4.6-0.1c1.9,0,4-0.1,6.1-0.1c2.8,0,5.2,0.4,7.1,1.1
		c1.9,0.7,3.5,1.6,4.7,2.8c1.2,1.2,2.1,2.5,2.6,4c0.6,1.5,0.8,3.1,0.8,4.6c0,2.3-0.4,4.3-1.2,5.9c-0.8,1.6-2,3-3.4,4
		c-1.4,1.1-3.1,1.8-5,2.4s-3.9,0.8-6.1,0.8h-3.6v11.8c0,0.3-0.2,0.5-0.5,0.5h-6c-0.3,0-0.5-0.1-0.5-0.4V25.9z M12.1,44.7
		c0.5,0,1,0.1,1.5,0.1c0.5,0,1.2,0,2.2,0c1.2,0,2.3-0.1,3.4-0.3c1.1-0.2,2-0.6,2.8-1.1s1.4-1.2,1.9-2.1c0.5-0.9,0.7-2,0.7-3.3
		c0-2.1-0.7-3.7-2.2-4.9c-1.4-1.2-3.5-1.8-6.1-1.8c-1,0-1.9,0-2.6,0c-0.8,0-1.3,0-1.6,0.1V44.7z"/>
	<path d="M53.1,41.4c-0.9-0.5-2-0.9-3.3-1.2c-1.3-0.3-2.6-0.5-3.9-0.5c-1.5,0-2.6,0.3-3.2,0.8c-0.6,0.5-0.9,1.1-0.9,1.7
		c0,0.7,0.3,1.2,0.9,1.7c0.6,0.5,1.8,1.1,3.6,1.8c3.3,1.2,5.5,2.5,6.8,3.9c1.3,1.4,2,3.1,2,5.1c0,2.7-1,4.9-3,6.4
		c-2,1.6-4.8,2.4-8.3,2.4c-1.7,0-3.3-0.1-4.7-0.4c-1.4-0.3-2.5-0.7-3.4-1.2c-0.3-0.2-0.4-0.4-0.4-0.6V56c0-0.3,0.2-0.4,0.5-0.3
		c1.2,0.8,2.6,1.4,4,1.8c1.5,0.4,2.9,0.5,4.2,0.5c1.5,0,2.6-0.2,3.3-0.7c0.7-0.5,1.1-1.1,1.1-1.8c0-0.7-0.3-1.4-1-1.9
		c-0.7-0.5-1.9-1.2-3.7-1.9c-3.1-1.1-5.3-2.4-6.6-3.8c-1.3-1.4-1.9-3.1-1.9-5.2c0-1.1,0.2-2.1,0.7-3.2c0.4-1,1.1-1.9,2-2.7
		c0.9-0.8,2-1.4,3.4-1.9c1.3-0.5,2.9-0.7,4.7-0.7c1.7,0,3.1,0.1,4.4,0.3c1.2,0.2,2.2,0.5,2.9,0.8c0.2,0.2,0.3,0.4,0.3,0.7v5.1
		C53.7,41.4,53.5,41.5,53.1,41.4z"/>
</g>
<g>
	<path d="M41.3,12.4c1.1-1.4,2.2-2.4,3.3-3.2s2.4-1.3,3.6-1.5c1.2-0.2,2.4-0.2,3.5,0.1c1.1,0.3,2.2,0.8,3.2,1.6
		c1.5,1.1,2.5,2.3,3,3.6c0.5,1.3,0.9,2.7,1,4.2c0.2,1.5,0.4,2.9,0.5,4.2c0.2,1.3,0.6,2.2,1.3,2.7c0.8,0.6,1.8,1,3.1,1.2
		c0.1,0,0.2,0,0.2,0.1c0.1,0.1,0,0.2-0.1,0.3l-3.1,4c-0.1,0.1-0.2,0.2-0.2,0.3c-0.1,0.1-0.2,0.1-0.4,0.2c-0.8,0.1-1.6-0.1-2.3-0.4
		c-0.7-0.3-1.3-0.6-1.7-1c-1.1-0.8-1.8-1.9-2.1-3.1c-0.3-1.3-0.6-2.8-0.9-4.8c-0.2-1.3-0.4-2.4-0.6-3.3c-0.2-0.8-0.7-1.5-1.4-2.1
		c-0.8-0.6-1.7-0.8-2.7-0.7c-1,0.2-2,1-3.1,2.4c-0.9,1.2-1.6,2.4-2,3.5s-0.7,2.3-0.9,3.4c-0.1,0.3-0.2,0.4-0.5,0.2L37.8,21
		c-0.2-0.2-0.3-0.4-0.3-0.5c0.1-0.8,0.4-1.9,0.9-3.3C39,15.7,39.9,14.1,41.3,12.4z M72.4,35.7c-0.7,0.9-1.6,1.5-2.6,1.7
		c-1,0.2-2-0.1-3-0.9c-1-0.7-1.5-1.6-1.6-2.7c-0.1-1,0.2-2,0.9-2.9c0.7-1,1.6-1.5,2.7-1.6c1-0.1,2,0.2,2.9,0.9
		c1,0.7,1.5,1.6,1.7,2.6C73.5,33.7,73.2,34.7,72.4,35.7z"/>
</g>
</svg>
