<svg width="60" height="60" viewBox="0 0 60 60" fill="none" xmlns="http://www.w3.org/2000/svg">
  <rect x="0.000244141" width="60" height="60" rx="30" fill="white" />
  <rect x="0.360821" y="0.360577" width="59.2788" height="59.2788" rx="29.6394" stroke="black" stroke-opacity="0.1"
    stroke-width="0.721153" />
  <path fill-rule="evenodd" clip-rule="evenodd"
    d="M49.5976 18.2111C49.5099 17.9822 49.3572 17.7037 49.1589 17.4022C48.7621 16.7956 48.1631 16.0516 47.4992 15.3496V15.3458C46.7895 14.6323 46.0646 14.0142 45.4771 13.606C45.1833 13.4038 44.9162 13.2435 44.6949 13.1558C44.5843 13.11 44.4736 13.0794 44.3668 13.0718C44.2638 13.0642 44.1341 13.0833 44.0349 13.1825L30.2768 26.582C30.1242 26.7308 29.8762 26.7308 29.7236 26.582L15.9656 13.1825C15.8664 13.0871 15.7367 13.068 15.6336 13.0718C15.5306 13.0794 15.4162 13.11 15.3055 13.1558C15.0842 13.2435 14.8133 13.4038 14.5234 13.606C13.9358 14.0142 13.2109 14.6361 12.5013 15.3458V15.3496C11.8374 16.0516 11.2384 16.7956 10.8416 17.4022C10.6432 17.7037 10.4868 17.9822 10.4028 18.2111C10.3609 18.3256 10.3303 18.44 10.3227 18.543C10.3189 18.6461 10.338 18.7796 10.441 18.8788L25.8129 33.8388C25.9503 33.9723 26.0266 34.1555 26.0266 34.3462L26.0113 52.6447C26.0113 52.782 26.0914 52.885 26.1601 52.9499C26.2326 53.0186 26.328 53.0758 26.4348 53.1254C26.6485 53.2284 26.9422 53.3238 27.2894 53.4039C27.9915 53.5642 28.9491 53.6786 30.0098 53.6786C31.0704 53.6786 32.0281 53.5642 32.7301 53.4039C33.0773 53.3238 33.3711 53.2284 33.5847 53.1254C33.6915 53.0758 33.7869 53.0148 33.8594 52.9499C33.9281 52.885 34.0082 52.782 34.0082 52.6447L33.993 34.3462C33.993 34.1555 34.0693 33.9723 34.2066 33.8388L49.5785 18.8788C49.6816 18.7796 49.7006 18.6461 49.6968 18.543C49.693 18.4362 49.6587 18.3217 49.6167 18.2111H49.5976Z"
    fill="url(#paint0_linear_3489_2870)" />
  <defs>
    <linearGradient id="paint0_linear_3489_2870" x1="10.3223" y1="34.1419" x2="49.3268" y2="30.7704"
      gradientUnits="userSpaceOnUse">
      <stop offset="0.195275" stop-color="#FF6A16" />
      <stop offset="0.512986" stop-color="#FF3227" />
      <stop offset="0.877573" stop-color="#FF66DD" />
    </linearGradient>
  </defs>
</svg>